<?xml version="1.0" encoding="UTF-8"?>
<svg id="Camada_1" data-name="Camada 1" xmlns="http://www.w3.org/2000/svg" viewBox="0 0 1635.66 992.57">
  <defs>
    <style>
      .cls-1 {
        fill: #2a5655;
        stroke: #00a678;
      }

      .cls-2 {
        stroke: #016146;
        stroke-width: 2px;
      }

      .cls-2, .cls-3, .cls-4 {
        fill: #014040;
      }

      .cls-5 {
        fill: #00a678;
      }

      .cls-4 {
        font-family: AgencyFB-Bold, 'Agency FB';
        font-size: 69px;
        letter-spacing: .07em;
      }

      .cls-6 {
        fill: #53b9a4;
      }
    </style>
  </defs>
  <polygon class="cls-6" points="1635.66 830.62 1521.39 944.89 1528.23 944.89 1545.44 927.68 1553.46 927.68 1561.16 919.99 1561.16 911.97 1564.33 908.79 1572.36 908.79 1580.05 901.09 1580.05 893.07 1583.23 889.9 1591.25 889.9 1598.95 882.2 1598.95 874.18 1602.12 871 1610.14 871 1617.84 863.31 1617.84 855.28 1635.66 837.46 1635.66 830.62"/>
  <g>
    <polygon class="cls-5" points="1349.22 89.47 1325.04 65.29 1173.93 65.29 1108.64 0 572.07 0 506.79 65.29 4.24 65.29 4.24 246.52 31.53 273.81 31.53 92.71 1218.15 92.71 1218.15 92.72 1513.22 92.72 1513.22 89.47 1349.22 89.47"/>
    <polygon class="cls-5" points="4.24 310.69 27.64 334.09 27.64 728.43 31.53 728.43 31.53 337.97 31.53 313.14 31.53 299.27 4.24 271.98 4.24 310.69"/>
  </g>
  <polygon class="cls-3" points="111.53 883.29 111.53 287.97 226.79 172.71 1571.76 172.71 1571.76 787.88 1476.35 883.29 111.53 883.29"/>
  <text class="cls-4" transform="translate(690.43 71.17)"><tspan x="0" y="0">GAME OVER</tspan></text>
  <path class="cls-2" d="M101.53,283.83V893.29H1480.49l101.27-101.27V162.71H222.64l-121.11,121.11Zm60.9,583.46h-8.79v8.79h-1v-8.79h-8.79v-1h8.79v-8.79h1v8.79h8.79v1Zm0-62h-8.79v8.79h-1v-8.79h-8.79v-1h8.79v-8.79h1v8.79h8.79v1Zm0-62h-8.79v8.79h-1v-8.79h-8.79v-1h8.79v-8.79h1v8.79h8.79v1Zm0-62h-8.79v8.79h-1v-8.79h-8.79v-1h8.79v-8.79h1v8.79h8.79v1Zm0-62h-8.79v8.79h-1v-8.79h-8.79v-1h8.79v-8.79h1v8.79h8.79v1Zm0-62h-8.79v8.79h-1v-8.79h-8.79v-1h8.79v-8.79h1v8.79h8.79v1Zm0-62h-8.79v8.79h-1v-8.79h-8.79v-1h8.79v-8.79h1v8.79h8.79v1Zm0-62h-8.79v8.79h-1v-8.79h-8.79v-1h8.79v-8.79h1v8.79h8.79v1Zm0-62h-8.79v8.79h-1v-8.79h-8.79v-1h8.79v-8.79h1v8.79h8.79v1Zm0-62h-8.79v8.79h-1v-8.79h-8.79v-1h8.79v-8.79h1v8.79h8.79v1Zm0-62h-8.79v8.79h-1v-8.79h-8.79v-1h8.79v-8.79h1v8.79h8.79v1Zm66,620h-8.79v8.79h-1v-8.79h-8.79v-1h8.79v-8.79h1v8.79h8.79v1Zm0-62h-8.79v8.79h-1v-8.79h-8.79v-1h8.79v-8.79h1v8.79h8.79v1Zm0-62h-8.79v8.79h-1v-8.79h-8.79v-1h8.79v-8.79h1v8.79h8.79v1Zm0-62h-8.79v8.79h-1v-8.79h-8.79v-1h8.79v-8.79h1v8.79h8.79v1Zm0-62h-8.79v8.79h-1v-8.79h-8.79v-1h8.79v-8.79h1v8.79h8.79v1Zm0-62h-8.79v8.79h-1v-8.79h-8.79v-1h8.79v-8.79h1v8.79h8.79v1Zm0-62h-8.79v8.79h-1v-8.79h-8.79v-1h8.79v-8.79h1v8.79h8.79v1Zm0-62h-8.79v8.79h-1v-8.79h-8.79v-1h8.79v-8.79h1v8.79h8.79v1Zm0-62h-8.79v8.79h-1v-8.79h-8.79v-1h8.79v-8.79h1v8.79h8.79v1Zm0-62h-8.79v8.79h-1v-8.79h-8.79v-1h8.79v-8.79h1v8.79h8.79v1Zm0-62h-8.79v8.79h-1v-8.79h-8.79v-1h8.79v-8.79h1v8.79h8.79v1Zm1301.43-63h8.79v-8.79h1v8.79h8.79v1h-8.79v8.79h-1v-8.79h-8.79v-1Zm0,62h8.79v-8.79h1v8.79h8.79v1h-8.79v8.79h-1v-8.79h-8.79v-1Zm0,62h8.79v-8.79h1v8.79h8.79v1h-8.79v8.79h-1v-8.79h-8.79v-1Zm0,62h8.79v-8.79h1v8.79h8.79v1h-8.79v8.79h-1v-8.79h-8.79v-1Zm0,62h8.79v-8.79h1v8.79h8.79v1h-8.79v8.79h-1v-8.79h-8.79v-1Zm0,62h8.79v-8.79h1v8.79h8.79v1h-8.79v8.79h-1v-8.79h-8.79v-1Zm0,62h8.79v-8.79h1v8.79h8.79v1h-8.79v8.79h-1v-8.79h-8.79v-1Zm0,62h8.79v-8.79h1v8.79h8.79v1h-8.79v8.79h-1v-8.79h-8.79v-1Zm0,62h8.79v-8.79h1v8.79h8.79v1h-8.79v8.79h-1v-8.79h-8.79v-1Zm0,62h8.79v-8.79h1v8.79h8.79v1h-8.79v8.79h-1v-8.79h-8.79v-1Zm0,62h8.79v-8.79h1v8.79h8.79v1h-8.79v8.79h-1v-8.79h-8.79v-1Zm-66-620h8.79v-8.79h1v8.79h8.79v1h-8.79v8.79h-1v-8.79h-8.79v-1Zm0,62h8.79v-8.79h1v8.79h8.79v1h-8.79v8.79h-1v-8.79h-8.79v-1Zm0,62h8.79v-8.79h1v8.79h8.79v1h-8.79v8.79h-1v-8.79h-8.79v-1Zm0,62h8.79v-8.79h1v8.79h8.79v1h-8.79v8.79h-1v-8.79h-8.79v-1Zm0,62h8.79v-8.79h1v8.79h8.79v1h-8.79v8.79h-1v-8.79h-8.79v-1Zm0,62h8.79v-8.79h1v8.79h8.79v1h-8.79v8.79h-1v-8.79h-8.79v-1Zm0,62h8.79v-8.79h1v8.79h8.79v1h-8.79v8.79h-1v-8.79h-8.79v-1Zm0,62h8.79v-8.79h1v8.79h8.79v1h-8.79v8.79h-1v-8.79h-8.79v-1Zm0,62h8.79v-8.79h1v8.79h8.79v1h-8.79v8.79h-1v-8.79h-8.79v-1Zm0,62h8.79v-8.79h1v8.79h8.79v1h-8.79v8.79h-1v-8.79h-8.79v-1Zm0,62h8.79v-8.79h1v8.79h8.79v1h-8.79v8.79h-1v-8.79h-8.79v-1Zm0,62h8.79v-8.79h1v8.79h8.79v1h-8.79v8.79h-1v-8.79h-8.79v-1Zm-66-682h8.79v-8.79h1v8.79h8.79v1h-8.79v8.79h-1v-8.79h-8.79v-1Zm0,62h8.79v-8.79h1v8.79h8.79v1h-8.79v8.79h-1v-8.79h-8.79v-1Zm0,62h8.79v-8.79h1v8.79h8.79v1h-8.79v8.79h-1v-8.79h-8.79v-1Zm0,62h8.79v-8.79h1v8.79h8.79v1h-8.79v8.79h-1v-8.79h-8.79v-1Zm0,62h8.79v-8.79h1v8.79h8.79v1h-8.79v8.79h-1v-8.79h-8.79v-1Zm0,62h8.79v-8.79h1v8.79h8.79v1h-8.79v8.79h-1v-8.79h-8.79v-1Zm0,62h8.79v-8.79h1v8.79h8.79v1h-8.79v8.79h-1v-8.79h-8.79v-1Zm0,62h8.79v-8.79h1v8.79h8.79v1h-8.79v8.79h-1v-8.79h-8.79v-1Zm0,62h8.79v-8.79h1v8.79h8.79v1h-8.79v8.79h-1v-8.79h-8.79v-1Zm0,62h8.79v-8.79h1v8.79h8.79v1h-8.79v8.79h-1v-8.79h-8.79v-1Zm0,62h8.79v-8.79h1v8.79h8.79v1h-8.79v8.79h-1v-8.79h-8.79v-1Zm0,62h8.79v-8.79h1v8.79h8.79v1h-8.79v8.79h-1v-8.79h-8.79v-1Zm-66-682h8.79v-8.79h1v8.79h8.79v1h-8.79v8.79h-1v-8.79h-8.79v-1Zm0,62h8.79v-8.79h1v8.79h8.79v1h-8.79v8.79h-1v-8.79h-8.79v-1Zm0,62h8.79v-8.79h1v8.79h8.79v1h-8.79v8.79h-1v-8.79h-8.79v-1Zm0,62h8.79v-8.79h1v8.79h8.79v1h-8.79v8.79h-1v-8.79h-8.79v-1Zm0,62h8.79v-8.79h1v8.79h8.79v1h-8.79v8.79h-1v-8.79h-8.79v-1Zm0,62h8.79v-8.79h1v8.79h8.79v1h-8.79v8.79h-1v-8.79h-8.79v-1Zm0,62h8.79v-8.79h1v8.79h8.79v1h-8.79v8.79h-1v-8.79h-8.79v-1Zm0,62h8.79v-8.79h1v8.79h8.79v1h-8.79v8.79h-1v-8.79h-8.79v-1Zm0,62h8.79v-8.79h1v8.79h8.79v1h-8.79v8.79h-1v-8.79h-8.79v-1Zm0,62h8.79v-8.79h1v8.79h8.79v1h-8.79v8.79h-1v-8.79h-8.79v-1Zm0,62h8.79v-8.79h1v8.79h8.79v1h-8.79v8.79h-1v-8.79h-8.79v-1Zm0,62h8.79v-8.79h1v8.79h8.79v1h-8.79v8.79h-1v-8.79h-8.79v-1Zm-66-682h8.79v-8.79h1v8.79h8.79v1h-8.79v8.79h-1v-8.79h-8.79v-1Zm0,62h8.79v-8.79h1v8.79h8.79v1h-8.79v8.79h-1v-8.79h-8.79v-1Zm0,62h8.79v-8.79h1v8.79h8.79v1h-8.79v8.79h-1v-8.79h-8.79v-1Zm0,62h8.79v-8.79h1v8.79h8.79v1h-8.79v8.79h-1v-8.79h-8.79v-1Zm0,62h8.79v-8.79h1v8.79h8.79v1h-8.79v8.79h-1v-8.79h-8.79v-1Zm0,62h8.79v-8.79h1v8.79h8.79v1h-8.79v8.79h-1v-8.79h-8.79v-1Zm0,62h8.79v-8.79h1v8.79h8.79v1h-8.79v8.79h-1v-8.79h-8.79v-1Zm0,62h8.79v-8.79h1v8.79h8.79v1h-8.79v8.79h-1v-8.79h-8.79v-1Zm0,62h8.79v-8.79h1v8.79h8.79v1h-8.79v8.79h-1v-8.79h-8.79v-1Zm0,62h8.79v-8.79h1v8.79h8.79v1h-8.79v8.79h-1v-8.79h-8.79v-1Zm0,62h8.79v-8.79h1v8.79h8.79v1h-8.79v8.79h-1v-8.79h-8.79v-1Zm0,62h8.79v-8.79h1v8.79h8.79v1h-8.79v8.79h-1v-8.79h-8.79v-1Zm-66-682h8.79v-8.79h1v8.79h8.79v1h-8.79v8.79h-1v-8.79h-8.79v-1Zm0,62h8.79v-8.79h1v8.79h8.79v1h-8.79v8.79h-1v-8.79h-8.79v-1Zm0,62h8.79v-8.79h1v8.79h8.79v1h-8.79v8.79h-1v-8.79h-8.79v-1Zm0,62h8.79v-8.79h1v8.79h8.79v1h-8.79v8.79h-1v-8.79h-8.79v-1Zm0,62h8.79v-8.79h1v8.79h8.79v1h-8.79v8.79h-1v-8.79h-8.79v-1Zm0,62h8.79v-8.79h1v8.79h8.79v1h-8.79v8.79h-1v-8.79h-8.79v-1Zm0,62h8.79v-8.79h1v8.79h8.79v1h-8.79v8.79h-1v-8.79h-8.79v-1Zm0,62h8.79v-8.79h1v8.79h8.79v1h-8.79v8.79h-1v-8.79h-8.79v-1Zm0,62h8.79v-8.79h1v8.79h8.79v1h-8.79v8.79h-1v-8.79h-8.79v-1Zm0,62h8.79v-8.79h1v8.79h8.79v1h-8.79v8.79h-1v-8.79h-8.79v-1Zm0,62h8.79v-8.79h1v8.79h8.79v1h-8.79v8.79h-1v-8.79h-8.79v-1Zm0,62h8.79v-8.79h1v8.79h8.79v1h-8.79v8.79h-1v-8.79h-8.79v-1Zm-66-682h8.79v-8.79h1v8.79h8.79v1h-8.79v8.79h-1v-8.79h-8.79v-1Zm0,62h8.79v-8.79h1v8.79h8.79v1h-8.79v8.79h-1v-8.79h-8.79v-1Zm0,62h8.79v-8.79h1v8.79h8.79v1h-8.79v8.79h-1v-8.79h-8.79v-1Zm0,62h8.79v-8.79h1v8.79h8.79v1h-8.79v8.79h-1v-8.79h-8.79v-1Zm0,62h8.79v-8.79h1v8.79h8.79v1h-8.79v8.79h-1v-8.79h-8.79v-1Zm0,62h8.79v-8.79h1v8.79h8.79v1h-8.79v8.79h-1v-8.79h-8.79v-1Zm0,62h8.79v-8.79h1v8.79h8.79v1h-8.79v8.79h-1v-8.79h-8.79v-1Zm0,62h8.79v-8.79h1v8.79h8.79v1h-8.79v8.79h-1v-8.79h-8.79v-1Zm0,62h8.79v-8.79h1v8.79h8.79v1h-8.79v8.79h-1v-8.79h-8.79v-1Zm0,62h8.79v-8.79h1v8.79h8.79v1h-8.79v8.79h-1v-8.79h-8.79v-1Zm0,62h8.79v-8.79h1v8.79h8.79v1h-8.79v8.79h-1v-8.79h-8.79v-1Zm0,62h8.79v-8.79h1v8.79h8.79v1h-8.79v8.79h-1v-8.79h-8.79v-1Zm-66-682h8.79v-8.79h1v8.79h8.79v1h-8.79v8.79h-1v-8.79h-8.79v-1Zm0,62h8.79v-8.79h1v8.79h8.79v1h-8.79v8.79h-1v-8.79h-8.79v-1Zm0,62h8.79v-8.79h1v8.79h8.79v1h-8.79v8.79h-1v-8.79h-8.79v-1Zm0,62h8.79v-8.79h1v8.79h8.79v1h-8.79v8.79h-1v-8.79h-8.79v-1Zm0,62h8.79v-8.79h1v8.79h8.79v1h-8.79v8.79h-1v-8.79h-8.79v-1Zm0,62h8.79v-8.79h1v8.79h8.79v1h-8.79v8.79h-1v-8.79h-8.79v-1Zm0,62h8.79v-8.79h1v8.79h8.79v1h-8.79v8.79h-1v-8.79h-8.79v-1Zm0,62h8.79v-8.79h1v8.79h8.79v1h-8.79v8.79h-1v-8.79h-8.79v-1Zm0,62h8.79v-8.79h1v8.79h8.79v1h-8.79v8.79h-1v-8.79h-8.79v-1Zm0,62h8.79v-8.79h1v8.79h8.79v1h-8.79v8.79h-1v-8.79h-8.79v-1Zm0,62h8.79v-8.79h1v8.79h8.79v1h-8.79v8.79h-1v-8.79h-8.79v-1Zm0,62h8.79v-8.79h1v8.79h8.79v1h-8.79v8.79h-1v-8.79h-8.79v-1Zm-66-682h8.79v-8.79h1v8.79h8.79v1h-8.79v8.79h-1v-8.79h-8.79v-1Zm0,62h8.79v-8.79h1v8.79h8.79v1h-8.79v8.79h-1v-8.79h-8.79v-1Zm0,62h8.79v-8.79h1v8.79h8.79v1h-8.79v8.79h-1v-8.79h-8.79v-1Zm0,62h8.79v-8.79h1v8.79h8.79v1h-8.79v8.79h-1v-8.79h-8.79v-1Zm0,62h8.79v-8.79h1v8.79h8.79v1h-8.79v8.79h-1v-8.79h-8.79v-1Zm0,62h8.79v-8.79h1v8.79h8.79v1h-8.79v8.79h-1v-8.79h-8.79v-1Zm0,62h8.79v-8.79h1v8.79h8.79v1h-8.79v8.79h-1v-8.79h-8.79v-1Zm0,62h8.79v-8.79h1v8.79h8.79v1h-8.79v8.79h-1v-8.79h-8.79v-1Zm0,62h8.79v-8.79h1v8.79h8.79v1h-8.79v8.79h-1v-8.79h-8.79v-1Zm0,62h8.79v-8.79h1v8.79h8.79v1h-8.79v8.79h-1v-8.79h-8.79v-1Zm0,62h8.79v-8.79h1v8.79h8.79v1h-8.79v8.79h-1v-8.79h-8.79v-1Zm0,62h8.79v-8.79h1v8.79h8.79v1h-8.79v8.79h-1v-8.79h-8.79v-1Zm-66-682h8.79v-8.79h1v8.79h8.79v1h-8.79v8.79h-1v-8.79h-8.79v-1Zm0,62h8.79v-8.79h1v8.79h8.79v1h-8.79v8.79h-1v-8.79h-8.79v-1Zm0,62h8.79v-8.79h1v8.79h8.79v1h-8.79v8.79h-1v-8.79h-8.79v-1Zm0,62h8.79v-8.79h1v8.79h8.79v1h-8.79v8.79h-1v-8.79h-8.79v-1Zm0,62h8.79v-8.79h1v8.79h8.79v1h-8.79v8.79h-1v-8.79h-8.79v-1Zm0,62h8.79v-8.79h1v8.79h8.79v1h-8.79v8.79h-1v-8.79h-8.79v-1Zm0,62h8.79v-8.79h1v8.79h8.79v1h-8.79v8.79h-1v-8.79h-8.79v-1Zm0,62h8.79v-8.79h1v8.79h8.79v1h-8.79v8.79h-1v-8.79h-8.79v-1Zm0,62h8.79v-8.79h1v8.79h8.79v1h-8.79v8.79h-1v-8.79h-8.79v-1Zm0,62h8.79v-8.79h1v8.79h8.79v1h-8.79v8.79h-1v-8.79h-8.79v-1Zm0,62h8.79v-8.79h1v8.79h8.79v1h-8.79v8.79h-1v-8.79h-8.79v-1Zm0,62h8.79v-8.79h1v8.79h8.79v1h-8.79v8.79h-1v-8.79h-8.79v-1Zm-66-682h8.79v-8.79h1v8.79h8.79v1h-8.79v8.79h-1v-8.79h-8.79v-1Zm0,62h8.79v-8.79h1v8.79h8.79v1h-8.79v8.79h-1v-8.79h-8.79v-1Zm0,62h8.79v-8.79h1v8.79h8.79v1h-8.79v8.79h-1v-8.79h-8.79v-1Zm0,62h8.79v-8.79h1v8.79h8.79v1h-8.79v8.79h-1v-8.79h-8.79v-1Zm0,62h8.79v-8.79h1v8.79h8.79v1h-8.79v8.79h-1v-8.79h-8.79v-1Zm0,62h8.79v-8.79h1v8.79h8.79v1h-8.79v8.79h-1v-8.79h-8.79v-1Zm0,62h8.79v-8.79h1v8.79h8.79v1h-8.79v8.79h-1v-8.79h-8.79v-1Zm0,62h8.79v-8.79h1v8.79h8.79v1h-8.79v8.79h-1v-8.79h-8.79v-1Zm0,62h8.79v-8.79h1v8.79h8.79v1h-8.79v8.79h-1v-8.79h-8.79v-1Zm0,62h8.79v-8.79h1v8.79h8.79v1h-8.79v8.79h-1v-8.79h-8.79v-1Zm0,62h8.79v-8.79h1v8.79h8.79v1h-8.79v8.79h-1v-8.79h-8.79v-1Zm0,62h8.79v-8.79h1v8.79h8.79v1h-8.79v8.79h-1v-8.79h-8.79v-1Zm-66-682h8.79v-8.79h1v8.79h8.79v1h-8.79v8.79h-1v-8.79h-8.79v-1Zm0,62h8.79v-8.79h1v8.79h8.79v1h-8.79v8.79h-1v-8.79h-8.79v-1Zm0,62h8.79v-8.79h1v8.79h8.79v1h-8.79v8.79h-1v-8.79h-8.79v-1Zm0,62h8.79v-8.79h1v8.79h8.79v1h-8.79v8.79h-1v-8.79h-8.79v-1Zm0,62h8.79v-8.79h1v8.79h8.79v1h-8.79v8.79h-1v-8.79h-8.79v-1Zm0,62h8.79v-8.79h1v8.79h8.79v1h-8.79v8.79h-1v-8.79h-8.79v-1Zm0,62h8.79v-8.79h1v8.79h8.79v1h-8.79v8.79h-1v-8.79h-8.79v-1Zm0,62h8.79v-8.79h1v8.79h8.79v1h-8.79v8.79h-1v-8.79h-8.79v-1Zm0,62h8.79v-8.79h1v8.79h8.79v1h-8.79v8.79h-1v-8.79h-8.79v-1Zm0,62h8.79v-8.79h1v8.79h8.79v1h-8.79v8.79h-1v-8.79h-8.79v-1Zm0,62h8.79v-8.79h1v8.79h8.79v1h-8.79v8.79h-1v-8.79h-8.79v-1Zm0,62h8.79v-8.79h1v8.79h8.79v1h-8.79v8.79h-1v-8.79h-8.79v-1Zm-66-682h8.79v-8.79h1v8.79h8.79v1h-8.79v8.79h-1v-8.79h-8.79v-1Zm0,62h8.79v-8.79h1v8.79h8.79v1h-8.79v8.79h-1v-8.79h-8.79v-1Zm0,62h8.79v-8.79h1v8.79h8.79v1h-8.79v8.79h-1v-8.79h-8.79v-1Zm0,62h8.79v-8.79h1v8.79h8.79v1h-8.79v8.79h-1v-8.79h-8.79v-1Zm0,62h8.79v-8.79h1v8.79h8.79v1h-8.79v8.79h-1v-8.79h-8.79v-1Zm0,62h8.79v-8.79h1v8.79h8.79v1h-8.79v8.79h-1v-8.79h-8.79v-1Zm0,62h8.79v-8.79h1v8.79h8.79v1h-8.79v8.79h-1v-8.79h-8.79v-1Zm0,62h8.79v-8.79h1v8.79h8.79v1h-8.79v8.79h-1v-8.79h-8.79v-1Zm0,62h8.79v-8.79h1v8.79h8.79v1h-8.79v8.79h-1v-8.79h-8.79v-1Zm0,62h8.79v-8.79h1v8.79h8.79v1h-8.79v8.79h-1v-8.79h-8.79v-1Zm0,62h8.79v-8.79h1v8.79h8.79v1h-8.79v8.79h-1v-8.79h-8.79v-1Zm0,62h8.79v-8.79h1v8.79h8.79v1h-8.79v8.79h-1v-8.79h-8.79v-1Zm-66-682h8.79v-8.79h1v8.79h8.79v1h-8.79v8.79h-1v-8.79h-8.79v-1Zm0,62h8.79v-8.79h1v8.79h8.79v1h-8.79v8.79h-1v-8.79h-8.79v-1Zm0,62h8.79v-8.79h1v8.79h8.79v1h-8.79v8.79h-1v-8.79h-8.79v-1Zm0,62h8.79v-8.79h1v8.79h8.79v1h-8.79v8.79h-1v-8.79h-8.79v-1Zm0,62h8.79v-8.79h1v8.79h8.79v1h-8.79v8.79h-1v-8.79h-8.79v-1Zm0,62h8.79v-8.79h1v8.79h8.79v1h-8.79v8.79h-1v-8.79h-8.79v-1Zm0,62h8.79v-8.79h1v8.79h8.79v1h-8.79v8.79h-1v-8.79h-8.79v-1Zm0,62h8.79v-8.79h1v8.79h8.79v1h-8.79v8.79h-1v-8.79h-8.79v-1Zm0,62h8.79v-8.79h1v8.79h8.79v1h-8.79v8.79h-1v-8.79h-8.79v-1Zm0,62h8.79v-8.79h1v8.79h8.79v1h-8.79v8.79h-1v-8.79h-8.79v-1Zm0,62h8.79v-8.79h1v8.79h8.79v1h-8.79v8.79h-1v-8.79h-8.79v-1Zm0,62h8.79v-8.79h1v8.79h8.79v1h-8.79v8.79h-1v-8.79h-8.79v-1Zm-66-682h8.79v-8.79h1v8.79h8.79v1h-8.79v8.79h-1v-8.79h-8.79v-1Zm0,62h8.79v-8.79h1v8.79h8.79v1h-8.79v8.79h-1v-8.79h-8.79v-1Zm0,62h8.79v-8.79h1v8.79h8.79v1h-8.79v8.79h-1v-8.79h-8.79v-1Zm0,62h8.79v-8.79h1v8.79h8.79v1h-8.79v8.79h-1v-8.79h-8.79v-1Zm0,62h8.79v-8.79h1v8.79h8.79v1h-8.79v8.79h-1v-8.79h-8.79v-1Zm0,62h8.79v-8.79h1v8.79h8.79v1h-8.79v8.79h-1v-8.79h-8.79v-1Zm0,62h8.79v-8.79h1v8.79h8.79v1h-8.79v8.79h-1v-8.79h-8.79v-1Zm0,62h8.79v-8.79h1v8.79h8.79v1h-8.79v8.79h-1v-8.79h-8.79v-1Zm0,62h8.79v-8.79h1v8.79h8.79v1h-8.79v8.79h-1v-8.79h-8.79v-1Zm0,62h8.79v-8.79h1v8.79h8.79v1h-8.79v8.79h-1v-8.79h-8.79v-1Zm0,62h8.79v-8.79h1v8.79h8.79v1h-8.79v8.79h-1v-8.79h-8.79v-1Zm0,62h8.79v-8.79h1v8.79h8.79v1h-8.79v8.79h-1v-8.79h-8.79v-1Zm-66-682h8.79v-8.79h1v8.79h8.79v1h-8.79v8.79h-1v-8.79h-8.79v-1Zm0,62h8.79v-8.79h1v8.79h8.79v1h-8.79v8.79h-1v-8.79h-8.79v-1Zm0,62h8.79v-8.79h1v8.79h8.79v1h-8.79v8.79h-1v-8.79h-8.79v-1Zm0,62h8.79v-8.79h1v8.79h8.79v1h-8.79v8.79h-1v-8.79h-8.79v-1Zm0,62h8.79v-8.79h1v8.79h8.79v1h-8.79v8.79h-1v-8.79h-8.79v-1Zm0,62h8.79v-8.79h1v8.79h8.79v1h-8.79v8.79h-1v-8.79h-8.79v-1Zm0,62h8.79v-8.79h1v8.79h8.79v1h-8.79v8.79h-1v-8.79h-8.79v-1Zm0,62h8.79v-8.79h1v8.79h8.79v1h-8.79v8.79h-1v-8.79h-8.79v-1Zm0,62h8.79v-8.79h1v8.79h8.79v1h-8.79v8.79h-1v-8.79h-8.79v-1Zm0,62h8.79v-8.79h1v8.79h8.79v1h-8.79v8.79h-1v-8.79h-8.79v-1Zm0,62h8.79v-8.79h1v8.79h8.79v1h-8.79v8.79h-1v-8.79h-8.79v-1Zm0,62h8.79v-8.79h1v8.79h8.79v1h-8.79v8.79h-1v-8.79h-8.79v-1ZM473.86,184.28h8.79v-8.79h1v8.79h8.79v1h-8.79v8.79h-1v-8.79h-8.79v-1Zm0,62h8.79v-8.79h1v8.79h8.79v1h-8.79v8.79h-1v-8.79h-8.79v-1Zm0,62h8.79v-8.79h1v8.79h8.79v1h-8.79v8.79h-1v-8.79h-8.79v-1Zm0,62h8.79v-8.79h1v8.79h8.79v1h-8.79v8.79h-1v-8.79h-8.79v-1Zm0,62h8.79v-8.79h1v8.79h8.79v1h-8.79v8.79h-1v-8.79h-8.79v-1Zm0,62h8.79v-8.79h1v8.79h8.79v1h-8.79v8.79h-1v-8.79h-8.79v-1Zm0,62h8.79v-8.79h1v8.79h8.79v1h-8.79v8.79h-1v-8.79h-8.79v-1Zm0,62h8.79v-8.79h1v8.79h8.79v1h-8.79v8.79h-1v-8.79h-8.79v-1Zm0,62h8.79v-8.79h1v8.79h8.79v1h-8.79v8.79h-1v-8.79h-8.79v-1Zm0,62h8.79v-8.79h1v8.79h8.79v1h-8.79v8.79h-1v-8.79h-8.79v-1Zm0,62h8.79v-8.79h1v8.79h8.79v1h-8.79v8.79h-1v-8.79h-8.79v-1Zm0,62h8.79v-8.79h1v8.79h8.79v1h-8.79v8.79h-1v-8.79h-8.79v-1ZM407.86,184.28h8.79v-8.79h1v8.79h8.79v1h-8.79v8.79h-1v-8.79h-8.79v-1Zm0,62h8.79v-8.79h1v8.79h8.79v1h-8.79v8.79h-1v-8.79h-8.79v-1Zm0,62h8.79v-8.79h1v8.79h8.79v1h-8.79v8.79h-1v-8.79h-8.79v-1Zm0,62h8.79v-8.79h1v8.79h8.79v1h-8.79v8.79h-1v-8.79h-8.79v-1Zm0,62h8.79v-8.79h1v8.79h8.79v1h-8.79v8.79h-1v-8.79h-8.79v-1Zm0,62h8.79v-8.79h1v8.79h8.79v1h-8.79v8.79h-1v-8.79h-8.79v-1Zm0,62h8.79v-8.79h1v8.79h8.79v1h-8.79v8.79h-1v-8.79h-8.79v-1Zm0,62h8.79v-8.79h1v8.79h8.79v1h-8.79v8.79h-1v-8.79h-8.79v-1Zm0,62h8.79v-8.79h1v8.79h8.79v1h-8.79v8.79h-1v-8.79h-8.79v-1Zm0,62h8.79v-8.79h1v8.79h8.79v1h-8.79v8.79h-1v-8.79h-8.79v-1Zm0,62h8.79v-8.79h1v8.79h8.79v1h-8.79v8.79h-1v-8.79h-8.79v-1Zm0,62h8.79v-8.79h1v8.79h8.79v1h-8.79v8.79h-1v-8.79h-8.79v-1ZM341.86,184.28h8.79v-8.79h1v8.79h8.79v1h-8.79v8.79h-1v-8.79h-8.79v-1Zm0,62h8.79v-8.79h1v8.79h8.79v1h-8.79v8.79h-1v-8.79h-8.79v-1Zm0,62h8.79v-8.79h1v8.79h8.79v1h-8.79v8.79h-1v-8.79h-8.79v-1Zm0,62h8.79v-8.79h1v8.79h8.79v1h-8.79v8.79h-1v-8.79h-8.79v-1Zm0,62h8.79v-8.79h1v8.79h8.79v1h-8.79v8.79h-1v-8.79h-8.79v-1Zm0,62h8.79v-8.79h1v8.79h8.79v1h-8.79v8.79h-1v-8.79h-8.79v-1Zm0,62h8.79v-8.79h1v8.79h8.79v1h-8.79v8.79h-1v-8.79h-8.79v-1Zm0,62h8.79v-8.79h1v8.79h8.79v1h-8.79v8.79h-1v-8.79h-8.79v-1Zm0,62h8.79v-8.79h1v8.79h8.79v1h-8.79v8.79h-1v-8.79h-8.79v-1Zm0,62h8.79v-8.79h1v8.79h8.79v1h-8.79v8.79h-1v-8.79h-8.79v-1Zm0,62h8.79v-8.79h1v8.79h8.79v1h-8.79v8.79h-1v-8.79h-8.79v-1Zm0,62h8.79v-8.79h1v8.79h8.79v1h-8.79v8.79h-1v-8.79h-8.79v-1ZM275.86,184.28h8.79v-8.79h1v8.79h8.79v1h-8.79v8.79h-1v-8.79h-8.79v-1Zm0,62h8.79v-8.79h1v8.79h8.79v1h-8.79v8.79h-1v-8.79h-8.79v-1Zm0,62h8.79v-8.79h1v8.79h8.79v1h-8.79v8.79h-1v-8.79h-8.79v-1Zm0,62h8.79v-8.79h1v8.79h8.79v1h-8.79v8.79h-1v-8.79h-8.79v-1Zm0,62h8.79v-8.79h1v8.79h8.79v1h-8.79v8.79h-1v-8.79h-8.79v-1Zm0,62h8.79v-8.79h1v8.79h8.79v1h-8.79v8.79h-1v-8.79h-8.79v-1Zm0,62h8.79v-8.79h1v8.79h8.79v1h-8.79v8.79h-1v-8.79h-8.79v-1Zm0,62h8.79v-8.79h1v8.79h8.79v1h-8.79v8.79h-1v-8.79h-8.79v-1Zm0,62h8.79v-8.79h1v8.79h8.79v1h-8.79v8.79h-1v-8.79h-8.79v-1Zm0,62h8.79v-8.79h1v8.79h8.79v1h-8.79v8.79h-1v-8.79h-8.79v-1Zm0,62h8.79v-8.79h1v8.79h8.79v1h-8.79v8.79h-1v-8.79h-8.79v-1Zm0,62h8.79v-8.79h1v8.79h8.79v1h-8.79v8.79h-1v-8.79h-8.79v-1ZM228.43,185.28h-8.79v8.79h-1v-8.79h-8.79v-1h8.79v-8.79h1v8.79h8.79v1Z"/>
  <polygon class="cls-1" points="1605.64 857.5 1604.64 857.5 1604.64 866.28 1595.86 866.28 1595.86 867.28 1604.64 867.28 1604.64 876.07 1605.64 876.07 1605.64 867.28 1614.43 867.28 1614.43 866.28 1605.64 866.28 1605.64 857.5"/>
  <polygon class="cls-5" points="59.14 961 31.57 961 31.57 933.43 27.57 933.43 27.57 961 0 961 0 965 27.57 965 27.57 992.57 31.57 992.57 31.57 965 59.14 965 59.14 961"/>
  <path class="cls-5" d="M51.53,112.71V943.29H721.47l40.72,40.72h367.27l20.72-20.72h139.33l20-20h191.67c50.99-50.99,79.57-79.57,130.56-130.56V112.71H51.53ZM1581.76,792.02l-101.27,101.27H101.53V283.83l121.11-121.11H1581.76V792.02Z"/>
</svg>