<?xml version="1.0" encoding="UTF-8"?>
<svg id="Camada_1" data-name="Camada 1" xmlns="http://www.w3.org/2000/svg" viewBox="0 0 524 195.55">
  <defs>
    <style>
      .cls-1 {
        fill: #ed6b4d;
      }

      .cls-2 {
        fill: #014040;
        stroke: #ed6b4d;
        stroke-miterlimit: 10;
        stroke-width: 2px;
      }

      .cls-3 {
        font-family: AgencyFB-Bold, 'Agency FB';
        font-size: 79.3px;
      }

      .cls-3, .cls-4 {
        fill: #53b9a4;
      }
    </style>
  </defs>
  <path class="cls-2" d="M472.39,183.55H12V73.16L51.61,33.55H512v110.39l-39.61,39.61Z"/>
  <text class="cls-3" transform="translate(59.89 142.89)"><tspan x="0" y="0">MEMORY GAME</tspan></text>
  <g>
    <polygon class="cls-4" points="85.68 70.02 95.64 70.02 106.07 59.59 96.11 59.59 85.68 70.02"/>
    <polygon class="cls-4" points="155.68 70.02 391.57 70.02 387.25 65.7 225.36 65.7 219.25 59.59 166.11 59.59 155.68 70.02"/>
    <polygon class="cls-4" points="120.07 59.59 110.11 59.59 99.68 70.02 109.64 70.02 120.07 59.59"/>
    <polygon class="cls-4" points="148.07 59.59 138.11 59.59 127.68 70.02 137.64 70.02 148.07 59.59"/>
    <polygon class="cls-4" points="92.07 59.59 73.97 59.59 63.54 70.02 81.64 70.02 92.07 59.59"/>
    <polygon class="cls-4" points="134.07 59.59 124.11 59.59 113.68 70.02 123.64 70.02 134.07 59.59"/>
    <polygon class="cls-4" points="162.07 59.59 152.11 59.59 141.68 70.02 151.64 70.02 162.07 59.59"/>
  </g>
  <g>
    <polygon class="cls-4" points="425.96 154.67 416 154.67 405.57 165.09 415.53 165.09 425.96 154.67"/>
    <polygon class="cls-4" points="355.96 154.67 120.07 154.67 124.39 158.99 286.29 158.99 292.39 165.09 345.53 165.09 355.96 154.67"/>
    <polygon class="cls-4" points="391.57 165.09 401.53 165.09 411.96 154.67 402 154.67 391.57 165.09"/>
    <polygon class="cls-4" points="363.57 165.09 373.53 165.09 383.96 154.67 374 154.67 363.57 165.09"/>
    <polygon class="cls-4" points="419.57 165.09 437.68 165.09 448.11 154.67 430 154.67 419.57 165.09"/>
    <polygon class="cls-4" points="377.57 165.09 387.53 165.09 397.96 154.67 388 154.67 377.57 165.09"/>
    <polygon class="cls-4" points="349.57 165.09 359.53 165.09 369.96 154.67 360 154.67 349.57 165.09"/>
  </g>
  <g>
    <path class="cls-1" d="M46.64,21.55L0,68.19v127.36H477.36l46.64-46.64V21.55H46.64Zm473.36,125.71l-44.29,44.29H4V69.85L48.29,25.55h471.71v121.71Z"/>
    <polygon class="cls-1" points="417.39 0 283.2 0 269.96 13.24 182.62 13.24 174.41 21.45 438.84 21.45 417.39 0"/>
  </g>
</svg>